# xmcd
# 
# Track frame offsets:
#     150
#     19505
#     33695
#     53045
# 
# Disc length: 1058
# 
# Revision: 0
# Processed by: cddbd v1.5.2PL0 Copyright (c) Steve Scherf et al.
# Submitted via: fre:ac v1.0.31
# 
DISCID=29042004
DTITLE=Lodestar - Down In The Mud (Single)
DYEAR=1997
DGENRE=Alternative
TTITLE0=Down In The Mud
TTITLE1=Neat, Neat, Neat
TTITLE2=Down In The Mud (Primitive Edit)
TTITLE3=Horse
EXTD=
EXTT0=
EXTT1=
EXTT2=
EXTT3=
PLAYORDER=
